<mxfile host="www.draw.io" modified="2019-12-10T17:26:43.320Z" agent="Mozilla/5.0 (Windows NT 10.0; Win64; x64) AppleWebKit/537.36 (KHTML, like Gecko) Chrome/78.0.3904.108 Safari/537.36" etag="zA9AuCjxXRtSb3AZ-Rdm" version="12.3.9" type="github" pages="1">
  <diagram name="Page-1" id="9f46799a-70d6-7492-0946-bef42562c5a5">
    <mxGraphModel dx="1022" dy="610" grid="1" gridSize="10" guides="1" tooltips="1" connect="1" arrows="1" fold="1" page="1" pageScale="1" pageWidth="1100" pageHeight="850" background="#ffffff" math="0" shadow="0">
      <root>
        <mxCell id="0"/>
        <mxCell id="1" parent="0"/>
        <mxCell id="78961159f06e98e8-17" value="PRODUCTOS" style="swimlane;html=1;fontStyle=1;align=center;verticalAlign=top;childLayout=stackLayout;horizontal=1;startSize=26;horizontalStack=0;resizeParent=1;resizeLast=0;collapsible=1;marginBottom=0;swimlaneFillColor=#ffffff;rounded=0;shadow=0;comic=0;labelBackgroundColor=none;strokeWidth=1;fillColor=none;fontFamily=Verdana;fontSize=12" parent="1" vertex="1">
          <mxGeometry x="240" y="63.5" width="160" height="234" as="geometry"/>
        </mxCell>
        <mxCell id="78961159f06e98e8-21" value="&lt;u&gt;&lt;b&gt;idproductos&lt;/b&gt;&lt;/u&gt;" style="text;html=1;strokeColor=none;fillColor=none;align=left;verticalAlign=top;spacingLeft=4;spacingRight=4;whiteSpace=wrap;overflow=hidden;rotatable=0;points=[[0,0.5],[1,0.5]];portConstraint=eastwest;" parent="78961159f06e98e8-17" vertex="1">
          <mxGeometry y="26" width="160" height="26" as="geometry"/>
        </mxCell>
        <mxCell id="78961159f06e98e8-20" value="nombre" style="text;html=1;strokeColor=none;fillColor=none;align=left;verticalAlign=top;spacingLeft=4;spacingRight=4;whiteSpace=wrap;overflow=hidden;rotatable=0;points=[[0,0.5],[1,0.5]];portConstraint=eastwest;" parent="78961159f06e98e8-17" vertex="1">
          <mxGeometry y="52" width="160" height="26" as="geometry"/>
        </mxCell>
        <mxCell id="78961159f06e98e8-23" value="idcategorias" style="text;html=1;strokeColor=none;fillColor=none;align=left;verticalAlign=top;spacingLeft=4;spacingRight=4;whiteSpace=wrap;overflow=hidden;rotatable=0;points=[[0,0.5],[1,0.5]];portConstraint=eastwest;" parent="78961159f06e98e8-17" vertex="1">
          <mxGeometry y="78" width="160" height="26" as="geometry"/>
        </mxCell>
        <mxCell id="78961159f06e98e8-25" value="descripcion" style="text;html=1;strokeColor=none;fillColor=none;align=left;verticalAlign=top;spacingLeft=4;spacingRight=4;whiteSpace=wrap;overflow=hidden;rotatable=0;points=[[0,0.5],[1,0.5]];portConstraint=eastwest;" parent="78961159f06e98e8-17" vertex="1">
          <mxGeometry y="104" width="160" height="26" as="geometry"/>
        </mxCell>
        <mxCell id="78961159f06e98e8-26" value="precio" style="text;html=1;strokeColor=none;fillColor=none;align=left;verticalAlign=top;spacingLeft=4;spacingRight=4;whiteSpace=wrap;overflow=hidden;rotatable=0;points=[[0,0.5],[1,0.5]];portConstraint=eastwest;" parent="78961159f06e98e8-17" vertex="1">
          <mxGeometry y="130" width="160" height="26" as="geometry"/>
        </mxCell>
        <mxCell id="78961159f06e98e8-24" value="stock" style="text;html=1;strokeColor=none;fillColor=none;align=left;verticalAlign=top;spacingLeft=4;spacingRight=4;whiteSpace=wrap;overflow=hidden;rotatable=0;points=[[0,0.5],[1,0.5]];portConstraint=eastwest;" parent="78961159f06e98e8-17" vertex="1">
          <mxGeometry y="156" width="160" height="26" as="geometry"/>
        </mxCell>
        <mxCell id="78961159f06e98e8-27" value="cantidad" style="text;html=1;strokeColor=none;fillColor=none;align=left;verticalAlign=top;spacingLeft=4;spacingRight=4;whiteSpace=wrap;overflow=hidden;rotatable=0;points=[[0,0.5],[1,0.5]];portConstraint=eastwest;" parent="78961159f06e98e8-17" vertex="1">
          <mxGeometry y="182" width="160" height="26" as="geometry"/>
        </mxCell>
        <mxCell id="e7TVVbDdhbRffRT50DZC-4" value="idmarcas" style="text;html=1;strokeColor=none;fillColor=none;align=left;verticalAlign=top;spacingLeft=4;spacingRight=4;whiteSpace=wrap;overflow=hidden;rotatable=0;points=[[0,0.5],[1,0.5]];portConstraint=eastwest;" parent="78961159f06e98e8-17" vertex="1">
          <mxGeometry y="208" width="160" height="26" as="geometry"/>
        </mxCell>
        <mxCell id="78961159f06e98e8-30" value="USUARIOS" style="swimlane;html=1;fontStyle=1;align=center;verticalAlign=top;childLayout=stackLayout;horizontal=1;startSize=26;horizontalStack=0;resizeParent=1;resizeLast=0;collapsible=1;marginBottom=0;swimlaneFillColor=#ffffff;rounded=0;shadow=0;comic=0;labelBackgroundColor=none;strokeWidth=1;fillColor=none;fontFamily=Verdana;fontSize=12" parent="1" vertex="1">
          <mxGeometry x="550" y="247" width="160" height="316" as="geometry"/>
        </mxCell>
        <mxCell id="78961159f06e98e8-31" value="&lt;u&gt;&lt;b&gt;idusuarios&lt;/b&gt;&lt;/u&gt;" style="text;html=1;strokeColor=none;fillColor=none;align=left;verticalAlign=top;spacingLeft=4;spacingRight=4;whiteSpace=wrap;overflow=hidden;rotatable=0;points=[[0,0.5],[1,0.5]];portConstraint=eastwest;" parent="78961159f06e98e8-30" vertex="1">
          <mxGeometry y="26" width="160" height="26" as="geometry"/>
        </mxCell>
        <mxCell id="78961159f06e98e8-32" value="nombre" style="text;html=1;strokeColor=none;fillColor=none;align=left;verticalAlign=top;spacingLeft=4;spacingRight=4;whiteSpace=wrap;overflow=hidden;rotatable=0;points=[[0,0.5],[1,0.5]];portConstraint=eastwest;" parent="78961159f06e98e8-30" vertex="1">
          <mxGeometry y="52" width="160" height="26" as="geometry"/>
        </mxCell>
        <mxCell id="78961159f06e98e8-33" value="apellidos" style="text;html=1;strokeColor=none;fillColor=none;align=left;verticalAlign=top;spacingLeft=4;spacingRight=4;whiteSpace=wrap;overflow=hidden;rotatable=0;points=[[0,0.5],[1,0.5]];portConstraint=eastwest;" parent="78961159f06e98e8-30" vertex="1">
          <mxGeometry y="78" width="160" height="26" as="geometry"/>
        </mxCell>
        <mxCell id="78961159f06e98e8-34" value="user_name" style="text;html=1;strokeColor=none;fillColor=none;align=left;verticalAlign=top;spacingLeft=4;spacingRight=4;whiteSpace=wrap;overflow=hidden;rotatable=0;points=[[0,0.5],[1,0.5]];portConstraint=eastwest;" parent="78961159f06e98e8-30" vertex="1">
          <mxGeometry y="104" width="160" height="26" as="geometry"/>
        </mxCell>
        <mxCell id="78961159f06e98e8-36" value="password" style="text;html=1;strokeColor=none;fillColor=none;align=left;verticalAlign=top;spacingLeft=4;spacingRight=4;whiteSpace=wrap;overflow=hidden;rotatable=0;points=[[0,0.5],[1,0.5]];portConstraint=eastwest;" parent="78961159f06e98e8-30" vertex="1">
          <mxGeometry y="130" width="160" height="26" as="geometry"/>
        </mxCell>
        <mxCell id="78961159f06e98e8-37" value="email" style="text;html=1;strokeColor=none;fillColor=none;align=left;verticalAlign=top;spacingLeft=4;spacingRight=4;whiteSpace=wrap;overflow=hidden;rotatable=0;points=[[0,0.5],[1,0.5]];portConstraint=eastwest;" parent="78961159f06e98e8-30" vertex="1">
          <mxGeometry y="156" width="160" height="26" as="geometry"/>
        </mxCell>
        <mxCell id="78961159f06e98e8-39" value="dni" style="text;html=1;strokeColor=none;fillColor=none;align=left;verticalAlign=top;spacingLeft=4;spacingRight=4;whiteSpace=wrap;overflow=hidden;rotatable=0;points=[[0,0.5],[1,0.5]];portConstraint=eastwest;" parent="78961159f06e98e8-30" vertex="1">
          <mxGeometry y="182" width="160" height="26" as="geometry"/>
        </mxCell>
        <mxCell id="78961159f06e98e8-40" value="telefono" style="text;html=1;strokeColor=none;fillColor=none;align=left;verticalAlign=top;spacingLeft=4;spacingRight=4;whiteSpace=wrap;overflow=hidden;rotatable=0;points=[[0,0.5],[1,0.5]];portConstraint=eastwest;" parent="78961159f06e98e8-30" vertex="1">
          <mxGeometry y="208" width="160" height="26" as="geometry"/>
        </mxCell>
        <mxCell id="78961159f06e98e8-42" value="direccion" style="text;html=1;strokeColor=none;fillColor=none;align=left;verticalAlign=top;spacingLeft=4;spacingRight=4;whiteSpace=wrap;overflow=hidden;rotatable=0;points=[[0,0.5],[1,0.5]];portConstraint=eastwest;" parent="78961159f06e98e8-30" vertex="1">
          <mxGeometry y="234" width="160" height="26" as="geometry"/>
        </mxCell>
        <mxCell id="7UAfoyr8AbbVTsSyvI7V-7" value="activo" style="text;html=1;strokeColor=none;fillColor=none;align=left;verticalAlign=top;spacingLeft=4;spacingRight=4;whiteSpace=wrap;overflow=hidden;rotatable=0;points=[[0,0.5],[1,0.5]];portConstraint=eastwest;" parent="78961159f06e98e8-30" vertex="1">
          <mxGeometry y="260" width="160" height="26" as="geometry"/>
        </mxCell>
        <mxCell id="6r-YugnRgSn9FtwPUTXZ-1" value="create_time" style="text;html=1;strokeColor=none;fillColor=none;align=left;verticalAlign=top;spacingLeft=4;spacingRight=4;whiteSpace=wrap;overflow=hidden;rotatable=0;points=[[0,0.5],[1,0.5]];portConstraint=eastwest;" parent="78961159f06e98e8-30" vertex="1">
          <mxGeometry y="286" width="160" height="26" as="geometry"/>
        </mxCell>
        <mxCell id="78961159f06e98e8-43" value="CARRITO" style="swimlane;html=1;fontStyle=1;align=center;verticalAlign=top;childLayout=stackLayout;horizontal=1;startSize=26;horizontalStack=0;resizeParent=1;resizeLast=0;collapsible=1;marginBottom=0;swimlaneFillColor=#ffffff;rounded=0;shadow=0;comic=0;labelBackgroundColor=none;strokeWidth=1;fillColor=none;fontFamily=Verdana;fontSize=12" parent="1" vertex="1">
          <mxGeometry x="880" y="60" width="160" height="117" as="geometry"/>
        </mxCell>
        <mxCell id="78961159f06e98e8-44" value="&lt;u&gt;&lt;b&gt;idcarrito&lt;/b&gt;&lt;/u&gt;" style="text;html=1;strokeColor=none;fillColor=none;align=left;verticalAlign=top;spacingLeft=4;spacingRight=4;whiteSpace=wrap;overflow=hidden;rotatable=0;points=[[0,0.5],[1,0.5]];portConstraint=eastwest;" parent="78961159f06e98e8-43" vertex="1">
          <mxGeometry y="26" width="160" height="26" as="geometry"/>
        </mxCell>
        <mxCell id="78961159f06e98e8-49" value="idusuarios" style="text;html=1;strokeColor=none;fillColor=none;align=left;verticalAlign=top;spacingLeft=4;spacingRight=4;whiteSpace=wrap;overflow=hidden;rotatable=0;points=[[0,0.5],[1,0.5]];portConstraint=eastwest;" parent="78961159f06e98e8-43" vertex="1">
          <mxGeometry y="52" width="160" height="26" as="geometry"/>
        </mxCell>
        <mxCell id="78961159f06e98e8-56" value="CATEGORIAS" style="swimlane;html=1;fontStyle=1;align=center;verticalAlign=top;childLayout=stackLayout;horizontal=1;startSize=26;horizontalStack=0;resizeParent=1;resizeLast=0;collapsible=1;marginBottom=0;swimlaneFillColor=#ffffff;rounded=0;shadow=0;comic=0;labelBackgroundColor=none;strokeWidth=1;fillColor=none;fontFamily=Verdana;fontSize=12" parent="1" vertex="1">
          <mxGeometry x="40" y="451" width="160" height="90" as="geometry"/>
        </mxCell>
        <mxCell id="78961159f06e98e8-57" value="&lt;u&gt;&lt;b&gt;idcategorias&lt;/b&gt;&lt;/u&gt;" style="text;html=1;strokeColor=none;fillColor=none;align=left;verticalAlign=top;spacingLeft=4;spacingRight=4;whiteSpace=wrap;overflow=hidden;rotatable=0;points=[[0,0.5],[1,0.5]];portConstraint=eastwest;" parent="78961159f06e98e8-56" vertex="1">
          <mxGeometry y="26" width="160" height="26" as="geometry"/>
        </mxCell>
        <mxCell id="78961159f06e98e8-58" value="detalle_categoria" style="text;html=1;strokeColor=none;fillColor=none;align=left;verticalAlign=top;spacingLeft=4;spacingRight=4;whiteSpace=wrap;overflow=hidden;rotatable=0;points=[[0,0.5],[1,0.5]];portConstraint=eastwest;" parent="78961159f06e98e8-56" vertex="1">
          <mxGeometry y="52" width="160" height="26" as="geometry"/>
        </mxCell>
        <mxCell id="78961159f06e98e8-69" value="VENTAS" style="swimlane;html=1;fontStyle=1;align=center;verticalAlign=top;childLayout=stackLayout;horizontal=1;startSize=26;horizontalStack=0;resizeParent=1;resizeLast=0;collapsible=1;marginBottom=0;swimlaneFillColor=#ffffff;rounded=0;shadow=0;comic=0;labelBackgroundColor=none;strokeWidth=1;fillColor=none;fontFamily=Verdana;fontSize=12" parent="1" vertex="1">
          <mxGeometry x="890" y="405" width="160" height="182" as="geometry"/>
        </mxCell>
        <mxCell id="78961159f06e98e8-70" value="&lt;u&gt;&lt;b&gt;idventas&lt;/b&gt;&lt;/u&gt;" style="text;html=1;strokeColor=none;fillColor=none;align=left;verticalAlign=top;spacingLeft=4;spacingRight=4;whiteSpace=wrap;overflow=hidden;rotatable=0;points=[[0,0.5],[1,0.5]];portConstraint=eastwest;" parent="78961159f06e98e8-69" vertex="1">
          <mxGeometry y="26" width="160" height="26" as="geometry"/>
        </mxCell>
        <mxCell id="78961159f06e98e8-74" value="precio_total" style="text;html=1;strokeColor=none;fillColor=none;align=left;verticalAlign=top;spacingLeft=4;spacingRight=4;whiteSpace=wrap;overflow=hidden;rotatable=0;points=[[0,0.5],[1,0.5]];portConstraint=eastwest;" parent="78961159f06e98e8-69" vertex="1">
          <mxGeometry y="52" width="160" height="26" as="geometry"/>
        </mxCell>
        <mxCell id="7UAfoyr8AbbVTsSyvI7V-14" value="idmedios_de_pago" style="text;html=1;strokeColor=none;fillColor=none;align=left;verticalAlign=top;spacingLeft=4;spacingRight=4;whiteSpace=wrap;overflow=hidden;rotatable=0;points=[[0,0.5],[1,0.5]];portConstraint=eastwest;" parent="78961159f06e98e8-69" vertex="1">
          <mxGeometry y="78" width="160" height="26" as="geometry"/>
        </mxCell>
        <mxCell id="6r-YugnRgSn9FtwPUTXZ-2" value="fecha_venta" style="text;html=1;strokeColor=none;fillColor=none;align=left;verticalAlign=top;spacingLeft=4;spacingRight=4;whiteSpace=wrap;overflow=hidden;rotatable=0;points=[[0,0.5],[1,0.5]];portConstraint=eastwest;" parent="78961159f06e98e8-69" vertex="1">
          <mxGeometry y="104" width="160" height="26" as="geometry"/>
        </mxCell>
        <mxCell id="6r-YugnRgSn9FtwPUTXZ-3" value="idcarrito" style="text;html=1;strokeColor=none;fillColor=none;align=left;verticalAlign=top;spacingLeft=4;spacingRight=4;whiteSpace=wrap;overflow=hidden;rotatable=0;points=[[0,0.5],[1,0.5]];portConstraint=eastwest;" parent="78961159f06e98e8-69" vertex="1">
          <mxGeometry y="130" width="160" height="26" as="geometry"/>
        </mxCell>
        <mxCell id="78961159f06e98e8-104" value="direccion_envio_fc" style="text;html=1;strokeColor=none;fillColor=none;align=left;verticalAlign=top;spacingLeft=4;spacingRight=4;whiteSpace=wrap;overflow=hidden;rotatable=0;points=[[0,0.5],[1,0.5]];portConstraint=eastwest;" parent="78961159f06e98e8-69" vertex="1">
          <mxGeometry y="156" width="160" height="26" as="geometry"/>
        </mxCell>
        <mxCell id="78961159f06e98e8-82" value="MEDIOS_DE_PAGO" style="swimlane;html=1;fontStyle=1;align=center;verticalAlign=top;childLayout=stackLayout;horizontal=1;startSize=26;horizontalStack=0;resizeParent=1;resizeLast=0;collapsible=1;marginBottom=0;swimlaneFillColor=#ffffff;rounded=0;shadow=0;comic=0;labelBackgroundColor=none;strokeWidth=1;fillColor=none;fontFamily=Verdana;fontSize=12" parent="1" vertex="1">
          <mxGeometry x="550" y="596.5" width="160" height="91" as="geometry"/>
        </mxCell>
        <mxCell id="78961159f06e98e8-83" value="&lt;u&gt;&lt;b&gt;idmedios_de_pago&lt;/b&gt;&lt;/u&gt;" style="text;html=1;strokeColor=none;fillColor=none;align=left;verticalAlign=top;spacingLeft=4;spacingRight=4;whiteSpace=wrap;overflow=hidden;rotatable=0;points=[[0,0.5],[1,0.5]];portConstraint=eastwest;" parent="78961159f06e98e8-82" vertex="1">
          <mxGeometry y="26" width="160" height="26" as="geometry"/>
        </mxCell>
        <mxCell id="78961159f06e98e8-84" value="forma_de_pago" style="text;html=1;strokeColor=none;fillColor=none;align=left;verticalAlign=top;spacingLeft=4;spacingRight=4;whiteSpace=wrap;overflow=hidden;rotatable=0;points=[[0,0.5],[1,0.5]];portConstraint=eastwest;" parent="78961159f06e98e8-82" vertex="1">
          <mxGeometry y="52" width="160" height="26" as="geometry"/>
        </mxCell>
        <mxCell id="78961159f06e98e8-108" value="MARCAS" style="swimlane;html=1;fontStyle=1;align=center;verticalAlign=top;childLayout=stackLayout;horizontal=1;startSize=26;horizontalStack=0;resizeParent=1;resizeLast=0;collapsible=1;marginBottom=0;swimlaneFillColor=#ffffff;rounded=0;shadow=0;comic=0;labelBackgroundColor=none;strokeWidth=1;fillColor=none;fontFamily=Verdana;fontSize=12" parent="1" vertex="1">
          <mxGeometry x="240" y="425" width="160" height="127" as="geometry"/>
        </mxCell>
        <mxCell id="78961159f06e98e8-109" value="&lt;u&gt;&lt;b&gt;idmarcas&lt;/b&gt;&lt;/u&gt;" style="text;html=1;strokeColor=none;fillColor=none;align=left;verticalAlign=top;spacingLeft=4;spacingRight=4;whiteSpace=wrap;overflow=hidden;rotatable=0;points=[[0,0.5],[1,0.5]];portConstraint=eastwest;" parent="78961159f06e98e8-108" vertex="1">
          <mxGeometry y="26" width="160" height="26" as="geometry"/>
        </mxCell>
        <mxCell id="78961159f06e98e8-110" value="marca" style="text;html=1;strokeColor=none;fillColor=none;align=left;verticalAlign=top;spacingLeft=4;spacingRight=4;whiteSpace=wrap;overflow=hidden;rotatable=0;points=[[0,0.5],[1,0.5]];portConstraint=eastwest;" parent="78961159f06e98e8-108" vertex="1">
          <mxGeometry y="52" width="160" height="26" as="geometry"/>
        </mxCell>
        <mxCell id="78961159f06e98e8-117" value="stock" style="text;html=1;strokeColor=none;fillColor=none;align=left;verticalAlign=top;spacingLeft=4;spacingRight=4;whiteSpace=wrap;overflow=hidden;rotatable=0;points=[[0,0.5],[1,0.5]];portConstraint=eastwest;" parent="78961159f06e98e8-108" vertex="1">
          <mxGeometry y="78" width="160" height="26" as="geometry"/>
        </mxCell>
        <mxCell id="7UAfoyr8AbbVTsSyvI7V-3" value="&lt;b style=&quot;font-size: 16px&quot;&gt;&lt;font style=&quot;font-size: 16px&quot;&gt;DIAGRAMA DE ENTIDAD RELACION - BETY MARKET al 05/12/2019 después Feedback&lt;/font&gt;&lt;/b&gt;" style="text;html=1;strokeColor=none;fillColor=none;align=center;verticalAlign=middle;whiteSpace=wrap;rounded=0;fontSize=16;" parent="1" vertex="1">
          <mxGeometry x="200" y="10" width="730" height="40" as="geometry"/>
        </mxCell>
        <mxCell id="7UAfoyr8AbbVTsSyvI7V-11" value="1-1" style="endArrow=open;html=1;endSize=12;startArrow=diamondThin;startSize=14;startFill=0;edgeStyle=orthogonalEdgeStyle;fontSize=16;exitX=1.063;exitY=0.269;exitDx=0;exitDy=0;exitPerimeter=0;" parent="1" source="78961159f06e98e8-31" edge="1">
          <mxGeometry relative="1" as="geometry">
            <mxPoint x="730" y="280" as="sourcePoint"/>
            <mxPoint x="870" y="151" as="targetPoint"/>
            <Array as="points">
              <mxPoint x="780" y="280"/>
              <mxPoint x="780" y="151"/>
              <mxPoint x="840" y="151"/>
            </Array>
          </mxGeometry>
        </mxCell>
        <mxCell id="7UAfoyr8AbbVTsSyvI7V-12" value="1" style="resizable=0;html=1;align=left;verticalAlign=top;labelBackgroundColor=#ffffff;fontSize=10;" parent="7UAfoyr8AbbVTsSyvI7V-11" connectable="0" vertex="1">
          <mxGeometry x="-1" relative="1" as="geometry"/>
        </mxCell>
        <mxCell id="7UAfoyr8AbbVTsSyvI7V-13" value="n" style="resizable=0;html=1;align=right;verticalAlign=top;labelBackgroundColor=#ffffff;fontSize=10;" parent="7UAfoyr8AbbVTsSyvI7V-11" connectable="0" vertex="1">
          <mxGeometry x="1" relative="1" as="geometry"/>
        </mxCell>
        <mxCell id="7UAfoyr8AbbVTsSyvI7V-15" value="1-n" style="endArrow=open;html=1;endSize=12;startArrow=diamondThin;startSize=14;startFill=0;edgeStyle=orthogonalEdgeStyle;fontSize=16;exitX=1.038;exitY=0.885;exitDx=0;exitDy=0;exitPerimeter=0;entryX=0;entryY=0.5;entryDx=0;entryDy=0;" parent="1" source="78961159f06e98e8-83" target="7UAfoyr8AbbVTsSyvI7V-14" edge="1">
          <mxGeometry relative="1" as="geometry">
            <mxPoint x="700" y="481.5" as="sourcePoint"/>
            <mxPoint x="870" y="550" as="targetPoint"/>
          </mxGeometry>
        </mxCell>
        <mxCell id="7UAfoyr8AbbVTsSyvI7V-16" value="1" style="resizable=0;html=1;align=left;verticalAlign=top;labelBackgroundColor=#ffffff;fontSize=10;" parent="7UAfoyr8AbbVTsSyvI7V-15" connectable="0" vertex="1">
          <mxGeometry x="-1" relative="1" as="geometry"/>
        </mxCell>
        <mxCell id="7UAfoyr8AbbVTsSyvI7V-17" value="n" style="resizable=0;html=1;align=right;verticalAlign=top;labelBackgroundColor=#ffffff;fontSize=10;" parent="7UAfoyr8AbbVTsSyvI7V-15" connectable="0" vertex="1">
          <mxGeometry x="1" relative="1" as="geometry"/>
        </mxCell>
        <mxCell id="7UAfoyr8AbbVTsSyvI7V-21" value="1-1" style="endArrow=open;html=1;endSize=12;startArrow=diamondThin;startSize=14;startFill=0;edgeStyle=orthogonalEdgeStyle;fontSize=16;exitX=0.75;exitY=0;exitDx=0;exitDy=0;entryX=0.75;entryY=1;entryDx=0;entryDy=0;" parent="1" source="78961159f06e98e8-69" target="78961159f06e98e8-43" edge="1">
          <mxGeometry relative="1" as="geometry">
            <mxPoint x="970" y="470" as="sourcePoint"/>
            <mxPoint x="870" y="410" as="targetPoint"/>
            <Array as="points"/>
          </mxGeometry>
        </mxCell>
        <mxCell id="7UAfoyr8AbbVTsSyvI7V-22" value="1" style="resizable=0;html=1;align=left;verticalAlign=top;labelBackgroundColor=#ffffff;fontSize=10;" parent="7UAfoyr8AbbVTsSyvI7V-21" connectable="0" vertex="1">
          <mxGeometry x="-1" relative="1" as="geometry">
            <mxPoint x="10" y="-20" as="offset"/>
          </mxGeometry>
        </mxCell>
        <mxCell id="7UAfoyr8AbbVTsSyvI7V-23" value="1" style="resizable=0;html=1;align=right;verticalAlign=top;labelBackgroundColor=#ffffff;fontSize=10;" parent="7UAfoyr8AbbVTsSyvI7V-21" connectable="0" vertex="1">
          <mxGeometry x="1" relative="1" as="geometry">
            <mxPoint x="-10" y="13" as="offset"/>
          </mxGeometry>
        </mxCell>
        <mxCell id="7UAfoyr8AbbVTsSyvI7V-34" value="Carrito-Producto" style="swimlane;html=1;fontStyle=1;align=center;verticalAlign=top;childLayout=stackLayout;horizontal=1;startSize=26;horizontalStack=0;resizeParent=1;resizeLast=0;collapsible=1;marginBottom=0;swimlaneFillColor=#ffffff;rounded=0;shadow=0;comic=0;labelBackgroundColor=none;strokeWidth=1;fillColor=none;fontFamily=Verdana;fontSize=12" parent="1" vertex="1">
          <mxGeometry x="525" y="60" width="130" height="150" as="geometry"/>
        </mxCell>
        <mxCell id="7UAfoyr8AbbVTsSyvI7V-35" value="&lt;u&gt;&lt;b&gt;idcarrito-producto&lt;/b&gt;&lt;/u&gt;" style="text;html=1;strokeColor=none;fillColor=none;align=left;verticalAlign=top;spacingLeft=4;spacingRight=4;whiteSpace=wrap;overflow=hidden;rotatable=0;points=[[0,0.5],[1,0.5]];portConstraint=eastwest;" parent="7UAfoyr8AbbVTsSyvI7V-34" vertex="1">
          <mxGeometry y="26" width="130" height="26" as="geometry"/>
        </mxCell>
        <mxCell id="7UAfoyr8AbbVTsSyvI7V-36" value="idcarrito" style="text;html=1;strokeColor=none;fillColor=none;align=left;verticalAlign=top;spacingLeft=4;spacingRight=4;whiteSpace=wrap;overflow=hidden;rotatable=0;points=[[0,0.5],[1,0.5]];portConstraint=eastwest;" parent="7UAfoyr8AbbVTsSyvI7V-34" vertex="1">
          <mxGeometry y="52" width="130" height="26" as="geometry"/>
        </mxCell>
        <mxCell id="7UAfoyr8AbbVTsSyvI7V-37" value="idproductos" style="text;html=1;strokeColor=none;fillColor=none;align=left;verticalAlign=top;spacingLeft=4;spacingRight=4;whiteSpace=wrap;overflow=hidden;rotatable=0;points=[[0,0.5],[1,0.5]];portConstraint=eastwest;" parent="7UAfoyr8AbbVTsSyvI7V-34" vertex="1">
          <mxGeometry y="78" width="130" height="26" as="geometry"/>
        </mxCell>
        <mxCell id="78961159f06e98e8-75" value="cantidad_producto" style="text;html=1;strokeColor=none;fillColor=none;align=left;verticalAlign=top;spacingLeft=4;spacingRight=4;whiteSpace=wrap;overflow=hidden;rotatable=0;points=[[0,0.5],[1,0.5]];portConstraint=eastwest;" parent="7UAfoyr8AbbVTsSyvI7V-34" vertex="1">
          <mxGeometry y="104" width="130" height="46" as="geometry"/>
        </mxCell>
        <mxCell id="7UAfoyr8AbbVTsSyvI7V-38" value="" style="edgeStyle=entityRelationEdgeStyle;fontSize=12;html=1;endArrow=ERoneToMany;startArrow=ERoneToMany;entryX=0;entryY=0.5;entryDx=0;entryDy=0;exitX=1;exitY=0.5;exitDx=0;exitDy=0;" parent="1" source="7UAfoyr8AbbVTsSyvI7V-36" target="78961159f06e98e8-44" edge="1">
          <mxGeometry width="100" height="100" relative="1" as="geometry">
            <mxPoint x="690" y="278" as="sourcePoint"/>
            <mxPoint x="725" y="68.5" as="targetPoint"/>
          </mxGeometry>
        </mxCell>
        <mxCell id="7UAfoyr8AbbVTsSyvI7V-39" value="" style="edgeStyle=entityRelationEdgeStyle;fontSize=12;html=1;endArrow=ERoneToMany;startArrow=ERoneToMany;exitX=1;exitY=0.5;exitDx=0;exitDy=0;entryX=0;entryY=0.5;entryDx=0;entryDy=0;" parent="1" source="78961159f06e98e8-21" target="7UAfoyr8AbbVTsSyvI7V-37" edge="1">
          <mxGeometry width="100" height="100" relative="1" as="geometry">
            <mxPoint x="450" y="292" as="sourcePoint"/>
            <mxPoint x="530" y="270" as="targetPoint"/>
          </mxGeometry>
        </mxCell>
        <mxCell id="7UAfoyr8AbbVTsSyvI7V-31" value="1-n" style="endArrow=open;html=1;endSize=12;startArrow=diamondThin;startSize=14;startFill=0;edgeStyle=orthogonalEdgeStyle;fontSize=16;" parent="1" edge="1">
          <mxGeometry relative="1" as="geometry">
            <mxPoint x="120" y="430" as="sourcePoint"/>
            <mxPoint x="230" y="130" as="targetPoint"/>
            <Array as="points">
              <mxPoint x="150" y="373"/>
              <mxPoint x="150" y="130"/>
            </Array>
          </mxGeometry>
        </mxCell>
        <mxCell id="7UAfoyr8AbbVTsSyvI7V-32" value="1" style="resizable=0;html=1;align=left;verticalAlign=top;labelBackgroundColor=#ffffff;fontSize=10;" parent="7UAfoyr8AbbVTsSyvI7V-31" connectable="0" vertex="1">
          <mxGeometry x="-1" relative="1" as="geometry"/>
        </mxCell>
        <mxCell id="7UAfoyr8AbbVTsSyvI7V-33" value="n" style="resizable=0;html=1;align=right;verticalAlign=top;labelBackgroundColor=#ffffff;fontSize=10;" parent="7UAfoyr8AbbVTsSyvI7V-31" connectable="0" vertex="1">
          <mxGeometry x="1" relative="1" as="geometry"/>
        </mxCell>
        <mxCell id="GUmTG8UuYPIPtbDAJ_G1-1" value="1-n" style="endArrow=open;html=1;endSize=12;startArrow=diamondThin;startSize=14;startFill=0;edgeStyle=orthogonalEdgeStyle;fontSize=16;entryX=0.306;entryY=-0.005;entryDx=0;entryDy=0;entryPerimeter=0;" parent="1" target="78961159f06e98e8-69" edge="1">
          <mxGeometry relative="1" as="geometry">
            <mxPoint x="720" y="301" as="sourcePoint"/>
            <mxPoint x="940" y="390" as="targetPoint"/>
            <Array as="points">
              <mxPoint x="770" y="301"/>
              <mxPoint x="770" y="320"/>
              <mxPoint x="940" y="320"/>
            </Array>
          </mxGeometry>
        </mxCell>
        <mxCell id="GUmTG8UuYPIPtbDAJ_G1-2" value="1" style="resizable=0;html=1;align=left;verticalAlign=top;labelBackgroundColor=#ffffff;fontSize=10;" parent="GUmTG8UuYPIPtbDAJ_G1-1" connectable="0" vertex="1">
          <mxGeometry x="-1" relative="1" as="geometry"/>
        </mxCell>
        <mxCell id="GUmTG8UuYPIPtbDAJ_G1-3" value="n" style="resizable=0;html=1;align=right;verticalAlign=top;labelBackgroundColor=#ffffff;fontSize=10;" parent="GUmTG8UuYPIPtbDAJ_G1-1" connectable="0" vertex="1">
          <mxGeometry x="1" relative="1" as="geometry"/>
        </mxCell>
        <mxCell id="e7TVVbDdhbRffRT50DZC-1" value="1-n" style="endArrow=open;html=1;endSize=12;startArrow=diamondThin;startSize=14;startFill=0;edgeStyle=orthogonalEdgeStyle;fontSize=16;" parent="1" edge="1">
          <mxGeometry relative="1" as="geometry">
            <mxPoint x="330" y="400" as="sourcePoint"/>
            <mxPoint x="420" y="170" as="targetPoint"/>
            <Array as="points">
              <mxPoint x="330" y="320"/>
              <mxPoint x="480" y="320"/>
              <mxPoint x="480" y="170"/>
            </Array>
          </mxGeometry>
        </mxCell>
        <mxCell id="e7TVVbDdhbRffRT50DZC-2" value="1" style="resizable=0;html=1;align=left;verticalAlign=top;labelBackgroundColor=#ffffff;fontSize=10;" parent="e7TVVbDdhbRffRT50DZC-1" connectable="0" vertex="1">
          <mxGeometry x="-1" relative="1" as="geometry"/>
        </mxCell>
        <mxCell id="e7TVVbDdhbRffRT50DZC-3" value="n" style="resizable=0;html=1;align=right;verticalAlign=top;labelBackgroundColor=#ffffff;fontSize=10;" parent="e7TVVbDdhbRffRT50DZC-1" connectable="0" vertex="1">
          <mxGeometry x="1" relative="1" as="geometry"/>
        </mxCell>
      </root>
    </mxGraphModel>
  </diagram>
</mxfile>
